<svg width="434" height="125" viewBox="0 0 434 125" fill="none" xmlns="http://www.w3.org/2000/svg">
<g filter="url(#filter0_d)">
<path d="M4.30859 81.0391C4.30859 80.9219 4.66016 80.2773 5.36328 79.1055C6.06641 77.8945 6.88672 76.5078 7.82422 74.9453C8.76172 73.3828 9.58203 72.0156 10.2852 70.8438C11.0273 69.6328 11.3984 69.0273 11.3984 69.0273L8 82.6797L19.6016 61.1172L18.4883 70.6094L28.625 44.2422L23.8203 49.1641L30.9688 33.9297L29.1523 40.082C29.1523 40.082 29.3672 39.7695 29.7969 39.1445C30.2266 38.4805 30.7539 37.7188 31.3789 36.8594C32.0039 35.9609 32.6289 35.1211 33.2539 34.3398C33.8789 33.5586 34.4062 33.0117 34.8359 32.6992C35.2656 32.3477 35.5 32.4062 35.5391 32.875C35.5781 33.5391 35.4219 34.5352 35.0703 35.8633C34.7578 37.1523 34.3867 38.5195 33.957 39.9648C33.5273 41.3711 33.1367 42.582 32.7852 43.5977C32.4727 44.6133 32.3164 45.1211 32.3164 45.1211L35.7148 40.3164C35.7148 40.3164 35.4023 41.2734 34.7773 43.1875C34.1523 45.1016 33.4297 47.3086 32.6094 49.8086C31.8281 52.2695 31.1055 54.4766 30.4414 56.4297C29.7773 58.3828 29.3867 59.5156 29.2695 59.8281C29.1914 59.9844 29.2891 59.9844 29.5625 59.8281C29.875 59.6328 30.2656 59.3594 30.7344 59.0078C31.2422 58.6562 31.7305 58.2852 32.1992 57.8945C32.707 57.5039 33.1367 57.1719 33.4883 56.8984C33.8789 56.625 34.0742 56.4883 34.0742 56.4883L33.3125 68.3242L41.3984 58.5391L39.9336 64.6328L62.7852 38.2656L56.9844 52.9727L57.3945 46.7617L47.5508 70.6094L49.8359 70.2578L43.4492 80.6875L49.4844 76.9375C49.4844 76.9375 49.1133 78.0898 48.3711 80.3945C47.668 82.6992 46.8281 85.3555 45.8516 88.3633C44.875 91.332 43.9766 93.9883 43.1562 96.332C42.375 98.7148 41.8867 100.082 41.6914 100.434C41.5742 100.551 42.0039 99.8281 42.9805 98.2656C43.957 96.7031 45.207 94.7109 46.7305 92.2891C48.2539 89.8672 49.7773 87.4258 51.3008 84.9648C52.8633 82.5039 54.1719 80.4141 55.2266 78.6953C56.3203 76.9766 56.8672 76.1172 56.8672 76.1172L55.2852 82.8555L66.0664 62.2305L62.4336 64.5156L72.1016 45.4727L69.3477 55.375L84.4062 20.043L84.1133 24.6133C84.1133 24.6133 84.3281 24.1445 84.7578 23.207C85.1875 22.2695 85.6172 21.0781 86.0469 19.6328C86.4766 18.1875 86.75 16.7227 86.8672 15.2383C86.9844 13.7148 86.7695 12.3477 86.2227 11.1367C85.6758 9.88672 84.6211 9.00781 83.0586 8.5C81.0664 7.95313 79.2305 7.91406 77.5508 8.38281C75.9102 8.8125 74.4844 9.47656 73.2734 10.375C72.0625 11.2344 71.125 12.0547 70.4609 12.8359C69.7969 13.6172 69.4648 14.0078 69.4648 14.0078L71.6328 9.49609L56.9258 25.2578L62.7266 22.4453L43.7422 41.8398L47.2578 30.3555L43.9766 35.2188L45.3242 19.9844L46.2617 22.2695C46.2617 22.2695 46.2812 21.8203 46.3203 20.9219C46.3984 19.9844 46.4375 18.9102 46.4375 17.6992C46.4375 16.4492 46.3398 15.2773 46.1445 14.1836C45.9492 13.0898 45.6172 12.3281 45.1484 11.8984C44.4453 11.3516 43.7812 10.9805 43.1562 10.7852C42.5703 10.5898 42.082 10.4922 41.6914 10.4922C41.3398 10.4531 41.1641 10.4336 41.1641 10.4336L45.0312 9.61328C45.0312 9.61328 44.7188 9.53516 44.0938 9.37891C43.4688 9.22266 42.5508 9.16406 41.3398 9.20312C40.168 9.24219 38.7031 9.47656 36.9453 9.90625C35.1875 10.4531 33.5273 11.3125 31.9648 12.4844C30.4414 13.6172 29.1914 14.6914 28.2148 15.707C27.2383 16.7227 26.75 17.2305 26.75 17.2305L30.5586 15.5898C30.5586 15.5898 30.207 15.9219 29.5039 16.5859C28.8008 17.25 27.7461 18.5586 26.3398 20.5117C25.5977 21.5664 24.7188 23.1484 23.7031 25.2578C22.6875 27.3672 21.6523 29.5742 20.5977 31.8789C19.582 34.1836 18.7227 36.1758 18.0195 37.8555C17.3555 39.4961 17.0234 40.3164 17.0234 40.3164L18.1367 34.1055L8.23438 59.125L12.2773 55.375L4.30859 81.0391ZM15.6172 72.3086C15.6953 72.2305 15.8125 72.0156 15.9688 71.6641C16.125 71.3125 16.2812 70.9219 16.4375 70.4922C16.6328 70.0625 16.7891 69.6914 16.9062 69.3789C17.0625 69.0273 17.1406 68.8516 17.1406 68.8516L17.375 72.0742L15.6172 72.3086ZM18.1367 32.3477L18.3711 27.6016L20.3633 26.0781L18.1367 32.3477ZM31.8477 62.8164L30.7344 70.4336C30.7344 70.4336 30.5977 70.4727 30.3242 70.5508C30.0508 70.6289 29.7188 70.7266 29.3281 70.8438C28.9375 70.9609 28.5469 71.0781 28.1562 71.1953C27.8047 71.3125 27.5117 71.4102 27.2773 71.4883C27.082 71.5273 27.0234 71.5469 27.1016 71.5469C27.2578 71.4688 27.5703 71 28.0391 70.1406C28.5469 69.2422 29.0742 68.2461 29.6211 67.1523C30.207 66.0195 30.7148 65.0234 31.1445 64.1641C31.6133 63.2656 31.8477 62.8164 31.8477 62.8164ZM56.6328 23.6172L51.3008 30.1211L51.7109 27.0156L56.6328 23.6172ZM68.7031 58.5391L69.0547 65.8047L65.8906 67.6797L68.7031 58.5391ZM89.7852 47.6406C89.7852 47.6797 89.5898 47.9141 89.1992 48.3438C88.8477 48.7734 88.3984 49.3398 87.8516 50.043C87.1094 50.9414 86.3281 51.8984 85.5078 52.9141C84.6875 53.9297 83.9844 54.8086 83.3984 55.5508C82.8125 56.293 82.5 56.7031 82.4609 56.7812C82.4609 56.8203 82.4805 56.6836 82.5195 56.3711C82.5586 56.0195 82.5977 55.5898 82.6367 55.082C82.6758 54.5742 82.7148 54.0664 82.7539 53.5586C82.793 53.0117 82.832 52.5625 82.8711 52.2109C82.9102 51.8203 82.9297 51.625 82.9297 51.625C83.75 51.1562 84.5703 50.6875 85.3906 50.2188C86.8359 49.3594 88.3008 48.5 89.7852 47.6406ZM115.859 64.2812L122.363 61.9375L122.715 59.7695L115.859 64.2812ZM119.434 27.8359C120.293 27.2891 121.465 26.8789 122.949 26.6055C124.434 26.293 125.723 26.0977 126.816 26.0195L128.34 24.0273C126.895 24.0273 125.293 24.3789 123.535 25.082C121.777 25.7461 120.41 26.6641 119.434 27.8359ZM93.8867 81.0391C94.043 81.4688 94.2188 81.8984 94.4141 82.3281C94.5703 82.7969 94.7266 83.2461 94.8828 83.6758C96.0547 83.4023 97.207 83.1484 98.3398 82.9141C98.7695 82.7969 99.1797 82.6992 99.5703 82.6211C98.9844 82.4258 98.3789 82.25 97.7539 82.0938C96.4648 81.7422 95.1758 81.3906 93.8867 81.0391ZM140 10.8438C139.102 10.8438 138.281 10.8633 137.539 10.9023C136.172 10.9023 134.883 10.9414 133.672 11.0195C132.5 11.0586 131.191 11.1367 129.746 11.2539C124.941 11.8789 121.191 12.8164 118.496 14.0664C115.84 15.2773 114.512 15.8828 114.512 15.8828C115.371 14.9844 116.25 14.1055 117.148 13.2461C117.578 12.7773 118.027 12.3086 118.496 11.8398C118.496 11.8398 117.988 11.9961 116.973 12.3086C115.957 12.582 114.629 13.1484 112.988 14.0078C111.387 14.8281 109.648 16.0586 107.773 17.6992C106.641 18.6758 105.703 19.5352 104.961 20.2773C104.219 21.0195 103.633 21.6445 103.203 22.1523C102.773 22.6602 102.441 23.0703 102.207 23.3828C102.012 23.6953 101.875 23.9297 101.797 24.0859C101.719 24.2031 101.68 24.2617 101.68 24.2617C103.516 22.8945 105.352 21.5469 107.188 20.2188C105.859 22.7578 104.531 25.2773 103.203 27.7773C101.875 30.3164 100.547 32.8555 99.2188 35.3945C99.2188 34.6914 99.2188 33.9883 99.2188 33.2852C99.2188 32.6211 99.2188 31.9375 99.2188 31.2344C97.7344 34.0859 96.25 36.9375 94.7656 39.7891C93.4766 39.9844 92.2656 40.1797 91.1328 40.375C90 40.5312 89.082 40.6875 88.3789 40.8438C87.7148 40.9609 87.4219 41.0391 87.5 41.0781C87.6562 41.1562 87.9688 41.3711 88.4375 41.7227C88.9453 42.0742 89.4922 42.4648 90.0781 42.8945C90.6641 43.3242 91.1523 43.7148 91.543 44.0664C91.9727 44.3789 92.1875 44.5352 92.1875 44.5352C91.7578 44.6914 91.3281 44.8477 90.8984 45.0039C89.1406 45.707 87.3633 46.3906 85.5664 47.0547C86.6992 46.8594 87.832 46.6836 88.9648 46.5273C89.8242 46.3711 90.6836 46.2148 91.543 46.0586C90.918 47.2305 90.3125 48.4023 89.7266 49.5742C89.1406 50.707 88.5352 51.8594 87.9102 53.0312C89.1992 51.8594 90.5078 50.668 91.8359 49.457C91.8359 49.457 91.3086 50.375 90.2539 52.2109C89.1992 54.0469 88.125 56.4297 87.0312 59.3594C85.9375 62.25 85.2148 65.3359 84.8633 68.6172C84.7461 71.0391 85.0586 73.0703 85.8008 74.7109C86.5039 76.3516 87.3828 77.6602 88.4375 78.6367C89.5312 79.5742 90.4883 80.2578 91.3086 80.6875C92.168 81.0781 92.5977 81.2734 92.5977 81.2734C91.9336 80.375 91.25 79.4961 90.5469 78.6367C90.1953 78.207 89.8438 77.7773 89.4922 77.3477C89.4922 77.3477 89.9219 77.6016 90.7812 78.1094C91.6797 78.5781 92.9102 79.0469 94.4727 79.5156C96.0742 79.9844 97.9102 80.2188 99.9805 80.2188C102.012 80.2188 104.062 79.9648 106.133 79.457C108.242 78.9102 109.98 78.3633 111.348 77.8164C112.754 77.2695 113.457 76.9961 113.457 76.9961C112.91 77.3477 112.344 77.6992 111.758 78.0508C110.469 78.832 109.18 79.6328 107.891 80.4531C113.047 78.9297 118.184 77.4062 123.301 75.8828C127.715 74.5547 132.129 73.2461 136.543 71.957C136.543 71.957 136.191 71.9375 135.488 71.8984C134.824 71.8203 134.004 71.7422 133.027 71.6641C132.09 71.5859 131.172 71.5078 130.273 71.4297C129.375 71.3125 128.672 71.2148 128.164 71.1367C127.656 71.0586 127.539 70.9805 127.812 70.9023C128.203 70.8242 129.141 70.4922 130.625 69.9062C132.148 69.3203 133.809 68.6562 135.605 67.9141C137.402 67.1719 138.965 66.5273 140.293 65.9805C141.66 65.3945 142.344 65.1016 142.344 65.1016C139.766 65.0234 137.168 64.9453 134.551 64.8672C132.09 64.7891 129.648 64.7109 127.227 64.6328C128.008 64.1641 128.789 63.6953 129.57 63.2266C131.211 62.2891 132.871 61.332 134.551 60.3555C130.684 61.4102 126.914 62.5234 123.242 63.6953C119.57 64.8281 115.82 65.9219 111.992 66.9766C112.539 66.5469 113.008 66.0586 113.398 65.5117C113.789 64.9648 114.258 64.4766 114.805 64.0469C112.031 65.6875 109.453 66.7812 107.07 67.3281C104.688 67.8359 101.953 67.4648 98.8672 66.2148C100 67.1523 101.113 68.0703 102.207 68.9688C102.207 68.9688 101.973 68.9688 101.504 68.9688C101.035 68.9688 100.469 68.8906 99.8047 68.7344C99.1797 68.5781 98.5742 68.2852 97.9883 67.8555C97.4414 67.4258 97.0508 66.8008 96.8164 65.9805C96.6992 65.3555 97.0508 64.0469 97.8711 62.0547C98.7305 60.0234 99.8633 57.6211 101.27 54.8477L95.1172 55.6094L108.242 51.3906L111.055 50.2773C110.703 50.5898 110.352 50.9023 110 51.2148C109.648 51.5273 109.316 51.8203 109.004 52.0938C110.723 51.6641 112.441 51.2344 114.16 50.8047C115.879 50.3359 117.598 49.8867 119.316 49.457C118.926 49.7305 118.535 49.9844 118.145 50.2188C117.754 50.4531 117.383 50.707 117.031 50.9805C121.172 50.3555 125.332 49.7305 129.512 49.1055C128.809 48.9102 128.125 48.7148 127.461 48.5195C126.758 48.2852 126.055 48.0703 125.352 47.875C125.352 47.875 125.742 47.7969 126.523 47.6406C127.305 47.4844 128.242 47.3086 129.336 47.1133C130.469 46.8789 131.562 46.6641 132.617 46.4688C133.711 46.2344 134.59 46.0586 135.254 45.9414C135.918 45.7852 136.172 45.707 136.016 45.707C135.82 45.707 135.117 45.6094 133.906 45.4141C132.734 45.2188 131.426 45.0039 129.98 44.7695C128.535 44.5352 127.266 44.3203 126.172 44.125C125.078 43.9297 124.531 43.832 124.531 43.832C126.289 43.3633 128.047 42.875 129.805 42.3672C128.203 42.3281 126.602 42.2891 125 42.25C123.555 42.2109 122.109 42.1719 120.664 42.1328C120.938 41.9375 121.191 41.7617 121.426 41.6055C121.699 41.4492 121.973 41.2734 122.246 41.0781C121.621 40.9219 121.016 40.7461 120.43 40.5508C119.805 40.3945 119.18 40.2383 118.555 40.082C116.016 40.3555 113.457 40.6094 110.879 40.8438C110.645 40.8047 110.41 40.7461 110.176 40.668C109.785 40.5898 109.395 40.4922 109.004 40.375C110.527 37.6406 111.797 35.375 112.812 33.5781C113.828 31.7812 114.336 30.8828 114.336 30.8828C114.336 31 114.316 31.1172 114.277 31.2344C114.199 32.2891 114.102 33.3242 113.984 34.3398C113.984 34.3398 114.219 33.8516 114.688 32.875C115.195 31.8984 115.84 30.7461 116.621 29.418C117.441 28.0898 118.34 26.8203 119.316 25.6094C120.293 24.3984 121.27 23.5195 122.246 22.9727C124.199 21.9961 125.781 21.3906 126.992 21.1562C128.242 20.8828 128.867 20.7461 128.867 20.7461C128.32 21.0586 127.773 21.3711 127.227 21.6836C126.328 22.1914 125.449 22.6992 124.59 23.207C127.129 22.6211 130.02 22.2305 133.262 22.0352C136.543 21.8398 139.473 21.957 142.051 22.3867C140.449 21.918 138.848 21.4297 137.246 20.9219C139.316 20.7266 141.113 20.4336 142.637 20.043C144.121 19.6133 145.918 19.3203 148.027 19.1641C147.09 18.7734 145.996 18.4219 144.746 18.1094C143.535 17.7578 142.461 17.4062 141.523 17.0547C142.773 16.6641 144.473 16.3516 146.621 16.1172C148.73 15.8828 150.41 15.5508 151.66 15.1211C151.66 15.1211 151.445 15.0625 151.016 14.9453C150.625 14.8281 150.137 14.6914 149.551 14.5352C148.965 14.3789 148.379 14.2227 147.793 14.0664C147.207 13.9102 146.738 13.7734 146.387 13.6562C146.035 13.5391 145.898 13.4805 145.977 13.4805C146.172 13.4414 146.66 13.2461 147.441 12.8945C148.223 12.543 149.062 12.1523 149.961 11.7227C150.156 11.6445 150.352 11.5664 150.547 11.4883C149.844 11.4883 149.18 11.5078 148.555 11.5469C147.031 11.5469 145.332 11.6055 143.457 11.7227C141.621 11.8008 139.238 12.0742 136.309 12.543C132.754 13.0898 130.293 13.5 128.926 13.7734C127.559 14.0078 126.875 14.125 126.875 14.125C126.914 14.0859 126.973 14.0469 127.051 14.0078C127.129 13.9297 127.227 13.8516 127.344 13.7734C127.5 13.6562 127.695 13.5586 127.93 13.4805C128.164 13.3633 128.438 13.2461 128.75 13.1289C129.102 12.9727 129.512 12.8359 129.98 12.7188C130.488 12.5625 131.055 12.4063 131.68 12.25C132.344 12.0937 133.066 11.9375 133.848 11.7812C134.668 11.625 135.586 11.4688 136.602 11.3125C137.656 11.1562 138.789 11 140 10.8438ZM107.305 40.082L104.727 39.9648L107.949 34.6914L107.188 37.4453L111.465 30.8242C111.465 30.8242 111.25 31.293 110.82 32.2305C110.391 33.168 109.902 34.2422 109.355 35.4531C108.848 36.6641 108.379 37.7383 107.949 38.6758C107.52 39.6133 107.305 40.082 107.305 40.082ZM158.855 18.6367L154.109 29.3008L160.496 17.7578L163.367 16.5273L163.191 18.2266L169.051 15.8242L168.348 18.4609L173.152 14.7695L169.812 24.4375L161.727 37.9727L164.891 35.1016C163.797 36.9766 162.176 40.2773 160.027 45.0039C157.879 49.7305 156.043 54.3789 154.52 58.9492C153.035 63.4805 152.723 66.3906 153.582 67.6797L155.691 62.1719L153.641 72.3672C153.641 72.3672 153.777 72.4844 154.051 72.7188C154.363 72.9531 154.832 73.1875 155.457 73.4219C156.121 73.6172 156.961 73.7148 157.977 73.7148C158.992 73.7148 160.242 73.5 161.727 73.0703C163.172 72.6016 164.344 72.0352 165.242 71.3711C166.18 70.707 166.883 70.0625 167.352 69.4375C167.82 68.8125 168.133 68.2852 168.289 67.8555C168.484 67.4258 168.582 67.2109 168.582 67.2109L164.188 69.0273C164.188 69.0273 164.754 68.4414 165.887 67.2695C167.059 66.0586 168.504 63.9688 170.223 61C171.395 58.9297 172.605 56.6836 173.855 54.2617C175.105 51.8398 176.18 49.7305 177.078 47.9336C177.977 46.0977 178.426 45.1797 178.426 45.1797L174.09 50.1016C174.09 50.1016 174.402 49.2617 175.027 47.582C175.691 45.8633 176.512 43.793 177.488 41.3711C178.504 38.9492 179.539 36.5469 180.594 34.1641C181.648 31.7812 182.625 29.8281 183.523 28.3047C184.695 26.2734 185.887 23.8906 187.098 21.1562C188.348 18.3828 189.402 15.9023 190.262 13.7148C191.16 11.5273 191.609 10.4336 191.609 10.4336L193.191 14.7695L199.402 5.04297L198.348 12.1328L205.496 0.824219C205.496 0.824219 204.969 2.38672 203.914 5.51172C202.898 8.63672 201.727 12.2305 200.398 16.293C199.07 20.3164 197.898 23.8906 196.883 27.0156C195.867 30.1406 195.32 31.8789 195.242 32.2305C195.242 32.3477 195.32 32.3086 195.477 32.1133C195.633 31.918 195.828 31.625 196.062 31.2344C196.297 30.8437 196.531 30.4531 196.766 30.0625C197 29.6328 197.195 29.2813 197.352 29.0078C197.547 28.6953 197.645 28.5391 197.645 28.5391L186.57 62.5234L187.098 55.7266C187.098 55.7266 186.648 57.25 185.75 60.2969C184.891 63.3438 183.035 67.4453 180.184 72.6016C178.152 76 176.043 78.7734 173.855 80.9219C171.707 83.0312 169.852 84.5938 168.289 85.6094C166.727 86.5859 165.945 87.0742 165.945 87.0742L169.93 81.6836C169.93 81.6836 169.188 82.0547 167.703 82.7969C166.258 83.5 164.461 84.2422 162.312 85.0234C166.297 83.3438 170.105 80.0039 173.738 75.0039C178.465 67.8555 181.551 62.7578 182.996 59.7109C184.48 56.6641 185.223 55.1406 185.223 55.1406C182.137 61.0781 177.996 67.4453 172.801 74.2422C167.605 81 162.312 84.9453 156.922 86.0781C151.57 87.2109 147.098 82.2891 143.504 71.3125L142.566 77.2891C142.566 77.2891 142.488 76.8594 142.332 76C142.215 75.1016 142.176 73.5781 142.215 71.4297C142.254 69.2812 142.469 66.3516 142.859 62.6406C143.367 58.7734 144.207 54.8867 145.379 50.9805C146.59 47.0352 147.723 43.7148 148.777 41.0195C149.871 38.2852 150.418 36.918 150.418 36.918L147.078 42.3086C147.078 42.3086 147.312 41.625 147.781 40.2578C148.25 38.8516 149.148 36.7812 150.477 34.0469C151.453 32.2109 152.527 30.1992 153.699 28.0117C154.871 25.8242 155.945 23.8516 156.922 22.0938C157.898 20.3359 158.543 19.1836 158.855 18.6367ZM163.426 15.6484L163.191 13.5977L161.434 15.0625L163.426 15.6484ZM164.188 17.4062L169.812 13.4805L164.949 14.7695L164.188 17.4062ZM198.465 26.4883C198.504 26.4492 198.758 26.0977 199.227 25.4336C199.695 24.7695 200.223 24.0078 200.809 23.1484C201.434 22.25 201.98 21.4687 202.449 20.8047C202.918 20.1016 203.152 19.75 203.152 19.75L202.332 16.4102L198.465 26.4883ZM164.305 67.0938C164.344 67.0547 164.461 66.957 164.656 66.8008C164.852 66.6055 165.066 66.4102 165.301 66.2148C165.535 65.9805 165.75 65.7852 165.945 65.6289C166.141 65.4336 166.238 65.3359 166.238 65.3359L168.289 62.1719L166.121 62.7578L164.305 67.0938ZM155.867 71.8984L157.449 65.9805L155.34 67.5039L154.168 71.6055L155.574 70.1406L155.867 71.8984ZM146.727 42.8359C146.727 42.8359 146.375 43.6562 145.672 45.2969C145.008 46.9375 144.188 49.1445 143.211 51.918C142.586 53.7539 142.215 55.3359 142.098 56.6641C141.98 57.9922 141.961 59.0273 142.039 59.7695C142.156 60.5117 142.215 60.8828 142.215 60.8828C142.215 60.8828 142.703 58.7539 143.68 54.4961C144.109 52.9336 144.559 51.2539 145.027 49.457C145.496 47.6602 145.887 46.1172 146.199 44.8281C146.551 43.5 146.727 42.8359 146.727 42.8359ZM258.559 80.6875C258.52 80.6875 258.246 80.8828 257.738 81.2734C257.23 81.625 256.625 82.0547 255.922 82.5625C255.258 83.0312 254.672 83.4609 254.164 83.8516C253.656 84.2031 253.402 84.3789 253.402 84.3789C253.793 84.3398 254.164 84.2812 254.516 84.2031C254.906 84.1641 255.297 84.125 255.688 84.0859C255.766 84.0078 255.844 83.9102 255.922 83.793C256.781 82.7773 257.66 81.7422 258.559 80.6875ZM289.672 31C289.672 31 289.496 31.2148 289.145 31.6445C288.832 32.0352 288.266 32.7773 287.445 33.8711C286.586 34.9648 285.863 35.7461 285.277 36.2148C284.691 36.6445 284.398 36.8594 284.398 36.8594C284.359 37.0938 284.262 37.5039 284.105 38.0898C283.949 38.6367 283.773 39.2617 283.578 39.9648C283.383 40.6289 283.207 41.2539 283.051 41.8398C282.895 42.3867 282.797 42.7773 282.758 43.0117C282.758 43.0117 282.973 42.6602 283.402 41.957C283.832 41.2148 284.34 40.375 284.926 39.4375C285.551 38.5 286.137 37.6602 286.684 36.918C287.23 36.1758 287.719 35.3555 288.148 34.457C288.617 33.5195 288.988 32.7188 289.262 32.0547C289.535 31.3516 289.672 31 289.672 31ZM271.449 6.15625C270.98 6.42969 270.531 6.70312 270.102 6.97656C269.359 7.48438 268.617 7.97266 267.875 8.44141C272.836 7.58203 277.836 7.01563 282.875 6.74219C281.078 6.625 279.262 6.52734 277.426 6.44922C275.434 6.33203 273.441 6.23437 271.449 6.15625ZM296.645 44.8867C297.465 44.2617 298.129 43.6172 298.637 42.9531C299.184 42.25 299.809 41.332 300.512 40.1992C300.902 39.5742 301.352 38.8516 301.859 38.0312C301 42.1328 298.559 47.2305 294.535 53.3242C290.512 59.3789 286.859 63.6367 283.578 66.0977C283.578 66.0977 283.637 65.9219 283.754 65.5703C283.91 65.1797 284.086 64.7305 284.281 64.2227C284.477 63.6758 284.652 63.1484 284.809 62.6406C285.004 62.1328 285.16 61.7227 285.277 61.4102C285.395 61.0977 285.434 61 285.395 61.1172C284.457 63.1094 282.504 65.2578 279.535 67.5625C276.605 69.8672 273.539 71.9766 270.336 73.8906C267.133 75.8047 264.672 77.1914 262.953 78.0508C260.883 78.832 259.848 79.2227 259.848 79.2227C260.629 78.5977 261.41 77.9922 262.191 77.4062C263.129 76.7422 264.047 76.0586 264.945 75.3555C264.867 75.3945 264.809 75.4336 264.77 75.4727C264.691 75.4727 264.613 75.4922 264.535 75.5312C253.793 80.2969 243.031 85.082 232.25 89.8867C233.344 89.1836 234.438 88.4805 235.531 87.7773C236.703 86.9961 237.895 86.2344 239.105 85.4922C239.105 85.4531 239.105 85.4336 239.105 85.4336C239.105 85.3945 239.105 85.375 239.105 85.375C234.887 86.5469 230.648 87.7383 226.391 88.9492C224.047 89.6133 221.703 90.2578 219.359 90.8828C222.25 89.3203 225.141 87.7578 228.031 86.1953C232.523 83.7734 236.996 81.3516 241.449 78.9297C241.488 78.8125 241.527 78.7148 241.566 78.6367C239.535 78.8711 237.504 79.0859 235.473 79.2812C236.059 79.0859 236.625 78.8711 237.172 78.6367C238.891 77.9727 240.59 77.3086 242.27 76.6445L251.469 56.4883C250.961 57.1133 250.453 57.7383 249.945 58.3633C249.438 58.9492 248.93 59.5547 248.422 60.1797C249.828 55.8828 251.234 51.5859 252.641 47.2891C254.047 42.8359 255.473 38.4023 256.918 33.9883C256.918 33.9883 256.918 34.2422 256.918 34.75C256.918 35.2188 256.918 35.8047 256.918 36.5078C256.918 37.1719 256.918 37.8359 256.918 38.5C256.918 39.1641 256.918 39.6914 256.918 40.082C256.918 40.4336 256.918 40.5508 256.918 40.4336C256.957 40.0039 257.465 38.3242 258.441 35.3945C259.457 32.4648 260.668 29.3008 262.074 25.9023C263.48 22.4648 264.828 19.7891 266.117 17.875C266.469 17.3672 266.781 16.918 267.055 16.5273C267.367 16.1367 267.641 15.7852 267.875 15.4727C268.109 15.1602 268.324 14.8867 268.52 14.6523C268.754 14.3789 268.949 14.1641 269.105 14.0078C269.262 13.8125 269.398 13.6562 269.516 13.5391C269.672 13.3828 269.789 13.2656 269.867 13.1875C269.984 13.0703 270.062 12.9922 270.102 12.9531C270.18 12.9141 270.238 12.875 270.277 12.8359C270.355 12.7969 270.395 12.7773 270.395 12.7773C270.434 12.7773 270.453 12.7773 270.453 12.7773C270.492 12.7773 270.512 12.7773 270.512 12.7773C269.145 13.3242 267.777 13.8711 266.41 14.418C266.41 14.418 266.879 13.9883 267.816 13.1289C268.793 12.2695 270.277 11.332 272.27 10.3164C274.262 9.26172 276.859 8.38281 280.062 7.67969C283.305 7.09375 286.43 6.97656 289.438 7.32812C292.445 7.67969 294.945 8.14844 296.938 8.73438C298.93 9.32031 299.926 9.61328 299.926 9.61328C299.301 9.65234 298.676 9.71094 298.051 9.78906C297.426 9.82813 296.781 9.86719 296.117 9.90625C299.867 11.3906 302.621 13.9492 304.379 17.582C306.137 21.1758 306.137 24.8477 304.379 28.5977C305.98 20.3555 302.25 14.6719 293.188 11.5469C293.188 11.5469 293.637 11.7617 294.535 12.1914C295.473 12.6211 296.566 13.2656 297.816 14.125C299.066 14.9844 300.219 16.0586 301.273 17.3477C302.367 18.5977 303.129 20.0625 303.559 21.7422C304.34 25.9609 303.949 30.0625 302.387 34.0469C300.824 37.9922 298.91 41.6055 296.645 44.8867ZM241.625 75.1797C240.57 75.1016 239.535 75.043 238.52 75.0039C237.465 74.9258 236.43 74.8477 235.414 74.7695C235.102 75.082 234.789 75.3945 234.477 75.707C234.203 76.0195 233.91 76.332 233.598 76.6445C234.926 76.3711 236.254 76.1172 237.582 75.8828C238.949 75.6484 240.297 75.4141 241.625 75.1797ZM241.332 73.4219C241.371 71.9375 241.41 70.4336 241.449 68.9102C241.488 68.6758 241.508 68.4414 241.508 68.207C241.117 68.4805 240.727 68.7539 240.336 69.0273C239.984 69.3008 239.613 69.5547 239.223 69.7891C239.926 71 240.629 72.2109 241.332 73.4219ZM273.324 31.1758C271.684 34.3008 269.965 38.2461 268.168 43.0117C266.371 47.7383 264.672 52.4062 263.07 57.0156C262.016 60.1406 261.059 62.8555 260.199 65.1602C261.918 64.3789 264.027 63.1875 266.527 61.5859C269.066 59.9844 271.566 58.1484 274.027 56.0781C273.09 56.3906 272.133 56.7031 271.156 57.0156C270.219 57.3281 269.262 57.6406 268.285 57.9531C268.285 57.9531 270.258 56.5273 274.203 53.6758C276.312 52.0352 277.953 50.4922 279.125 49.0469C280.297 47.5625 280.883 46.8203 280.883 46.8203C280.609 47.7578 280.316 48.6758 280.004 49.5742C279.809 50.2773 279.594 50.9609 279.359 51.625C279.359 51.625 279.652 51.4492 280.238 51.0977C280.824 50.7461 281.625 50.043 282.641 48.9883C283.656 47.9336 284.867 46.4102 286.273 44.418C288.305 41.2539 289.73 38.5195 290.551 36.2148C291.371 33.8711 291.781 32.6992 291.781 32.6992C290.688 33.9492 289.594 35.1992 288.5 36.4492C288.5 36.4492 288.676 36.1367 289.027 35.5117C289.379 34.8867 289.73 34.0859 290.082 33.1094C290.473 32.0938 290.746 31.0391 290.902 29.9453C291.098 28.8516 291.039 27.8359 290.727 26.8984C289.984 24.9453 288.734 23.4414 286.977 22.3867C285.219 21.332 283.266 21.0391 281.117 21.5078C279.711 21.8984 278.5 22.5234 277.484 23.3828C276.469 24.2031 275.668 25.0039 275.082 25.7852C274.496 26.5273 274.203 26.8984 274.203 26.8984C274.945 26.6641 275.688 26.4297 276.43 26.1953C276.938 26 277.465 25.8242 278.012 25.668C278.012 25.668 277.895 25.7266 277.66 25.8438C277.426 25.9609 277.094 26.1953 276.664 26.5469C276.273 26.8984 275.785 27.4453 275.199 28.1875C274.652 28.9297 274.027 29.9258 273.324 31.1758ZM326.574 18.6367L321.828 29.3008L328.215 17.7578L331.086 16.5273L330.91 18.2266L336.77 15.8242L336.066 18.4609L340.871 14.7695L337.531 24.4375L329.445 37.9727L332.609 35.1016C331.516 36.9766 329.895 40.2773 327.746 45.0039C325.598 49.7305 323.762 54.3789 322.238 58.9492C320.754 63.4805 320.441 66.3906 321.301 67.6797L323.41 62.1719L321.359 72.3672C321.359 72.3672 321.496 72.4844 321.77 72.7188C322.082 72.9531 322.551 73.1875 323.176 73.4219C323.84 73.6172 324.68 73.7148 325.695 73.7148C326.711 73.7148 327.961 73.5 329.445 73.0703C330.891 72.6016 332.062 72.0352 332.961 71.3711C333.898 70.707 334.602 70.0625 335.07 69.4375C335.539 68.8125 335.852 68.2852 336.008 67.8555C336.203 67.4258 336.301 67.2109 336.301 67.2109L331.906 69.0273C331.906 69.0273 332.473 68.4414 333.605 67.2695C334.777 66.0586 336.223 63.9688 337.941 61C339.113 58.9297 340.324 56.6836 341.574 54.2617C342.824 51.8398 343.898 49.7305 344.797 47.9336C345.695 46.0977 346.145 45.1797 346.145 45.1797L341.809 50.1016C341.809 50.1016 342.121 49.2617 342.746 47.582C343.41 45.8633 344.23 43.793 345.207 41.3711C346.223 38.9492 347.258 36.5469 348.312 34.1641C349.367 31.7812 350.344 29.8281 351.242 28.3047C352.414 26.2734 353.605 23.8906 354.816 21.1562C356.066 18.3828 357.121 15.9023 357.98 13.7148C358.879 11.5273 359.328 10.4336 359.328 10.4336L360.91 14.7695L367.121 5.04297L366.066 12.1328L373.215 0.824219C373.215 0.824219 372.688 2.38672 371.633 5.51172C370.617 8.63672 369.445 12.2305 368.117 16.293C366.789 20.3164 365.617 23.8906 364.602 27.0156C363.586 30.1406 363.039 31.8789 362.961 32.2305C362.961 32.3477 363.039 32.3086 363.195 32.1133C363.352 31.918 363.547 31.625 363.781 31.2344C364.016 30.8437 364.25 30.4531 364.484 30.0625C364.719 29.6328 364.914 29.2813 365.07 29.0078C365.266 28.6953 365.363 28.5391 365.363 28.5391L354.289 62.5234L354.816 55.7266C354.816 55.7266 354.367 57.25 353.469 60.2969C352.609 63.3438 350.754 67.4453 347.902 72.6016C345.871 76 343.762 78.7734 341.574 80.9219C339.426 83.0312 337.57 84.5938 336.008 85.6094C334.445 86.5859 333.664 87.0742 333.664 87.0742L337.648 81.6836C337.648 81.6836 336.906 82.0547 335.422 82.7969C333.977 83.5 332.18 84.2422 330.031 85.0234C334.016 83.3438 337.824 80.0039 341.457 75.0039C346.184 67.8555 349.27 62.7578 350.715 59.7109C352.199 56.6641 352.941 55.1406 352.941 55.1406C349.855 61.0781 345.715 67.4453 340.52 74.2422C335.324 81 330.031 84.9453 324.641 86.0781C319.289 87.2109 314.816 82.2891 311.223 71.3125L310.285 77.2891C310.285 77.2891 310.207 76.8594 310.051 76C309.934 75.1016 309.895 73.5781 309.934 71.4297C309.973 69.2812 310.188 66.3516 310.578 62.6406C311.086 58.7734 311.926 54.8867 313.098 50.9805C314.309 47.0352 315.441 43.7148 316.496 41.0195C317.59 38.2852 318.137 36.918 318.137 36.918L314.797 42.3086C314.797 42.3086 315.031 41.625 315.5 40.2578C315.969 38.8516 316.867 36.7812 318.195 34.0469C319.172 32.2109 320.246 30.1992 321.418 28.0117C322.59 25.8242 323.664 23.8516 324.641 22.0938C325.617 20.3359 326.262 19.1836 326.574 18.6367ZM331.145 15.6484L330.91 13.5977L329.152 15.0625L331.145 15.6484ZM331.906 17.4062L337.531 13.4805L332.668 14.7695L331.906 17.4062ZM366.184 26.4883C366.223 26.4492 366.477 26.0977 366.945 25.4336C367.414 24.7695 367.941 24.0078 368.527 23.1484C369.152 22.25 369.699 21.4687 370.168 20.8047C370.637 20.1016 370.871 19.75 370.871 19.75L370.051 16.4102L366.184 26.4883ZM332.023 67.0938C332.062 67.0547 332.18 66.957 332.375 66.8008C332.57 66.6055 332.785 66.4102 333.02 66.2148C333.254 65.9805 333.469 65.7852 333.664 65.6289C333.859 65.4336 333.957 65.3359 333.957 65.3359L336.008 62.1719L333.84 62.7578L332.023 67.0938ZM323.586 71.8984L325.168 65.9805L323.059 67.5039L321.887 71.6055L323.293 70.1406L323.586 71.8984ZM314.445 42.8359C314.445 42.8359 314.094 43.6562 313.391 45.2969C312.727 46.9375 311.906 49.1445 310.93 51.918C310.305 53.7539 309.934 55.3359 309.816 56.6641C309.699 57.9922 309.68 59.0273 309.758 59.7695C309.875 60.5117 309.934 60.8828 309.934 60.8828C309.934 60.8828 310.422 58.7539 311.398 54.4961C311.828 52.9336 312.277 51.2539 312.746 49.457C313.215 47.6602 313.605 46.1172 313.918 44.8281C314.27 43.5 314.445 42.8359 314.445 42.8359ZM398.809 17.0547C400.566 15.7656 402.598 14.8086 404.902 14.1836C407.207 13.5586 409.434 13.1875 411.582 13.0703L409.883 12.25C409.883 12.25 410.43 12.2109 411.523 12.1328C412.656 12.0156 414.043 11.9961 415.684 12.0742C417.324 12.1523 419.004 12.4453 420.723 12.9531C422.48 13.4219 424.023 14.2031 425.352 15.2969C426.641 16.4688 427.598 17.7187 428.223 19.0469C428.848 20.3359 429.258 21.5664 429.453 22.7383C429.648 23.8711 429.727 24.8086 429.688 25.5508C429.648 26.2539 429.629 26.6055 429.629 26.6055L427.93 23.3242C428.672 26.5273 428.809 30.9609 428.34 36.625C427.871 42.25 427.266 46.7812 426.523 50.2188L424.766 45.5312C424.414 47.9141 423.652 50.6289 422.48 53.6758C420.918 57.3477 418.848 60.6289 416.27 63.5195C413.73 66.3711 411.387 68.6367 409.238 70.3164C407.09 71.9961 406.016 72.8359 406.016 72.8359L413.105 62.8164C413.105 62.8164 412.598 63.4609 411.582 64.75C410.605 66.0391 409.258 67.5625 407.539 69.3203C405.859 71.0391 403.945 72.6992 401.797 74.3008C398.477 76.5273 395.664 78.0117 393.359 78.7539C391.055 79.457 389.902 79.8086 389.902 79.8086L394.883 75.8828C394.883 75.8828 394.316 76.2148 393.184 76.8789C392.09 77.5039 390.684 78.0898 388.965 78.6367C387.285 79.1836 385.547 79.3984 383.75 79.2812C381.953 79.1641 380.352 78.4219 378.945 77.0547C377.617 75.5703 376.68 73.6172 376.133 71.1953C375.625 68.7734 375.332 66.332 375.254 63.8711C375.215 61.3711 375.273 59.2617 375.43 57.543C375.586 55.7852 375.664 54.9062 375.664 54.9062L374.082 63.168C374.082 63.168 373.926 62.6602 373.613 61.6445C373.34 60.5898 373.145 59.0859 373.027 57.1328C372.949 55.1406 373.184 52.7188 373.73 49.8672C374.395 46.6641 375.215 44.125 376.191 42.25C377.207 40.3359 378.184 38.7539 379.121 37.5039C379.668 36.7617 380.156 36.0391 380.586 35.3359C381.875 33.7734 383.242 32.2109 384.688 30.6484C386.172 29.0469 387.441 27.7188 388.496 26.6641C389.551 25.5703 390.078 25.0234 390.078 25.0234C390.078 25.0234 389.941 25.0625 389.668 25.1406C389.434 25.1797 389.062 25.3555 388.555 25.668C388.047 25.9414 387.402 26.4102 386.621 27.0742C385.84 27.6992 384.902 28.5586 383.809 29.6523C381.152 32.6211 379.238 35.0625 378.066 36.9766C378.105 35.6484 380.488 31.4883 385.215 24.4961C387.715 21.1758 390.312 18.7148 393.008 17.1133C395.742 15.5117 398.066 14.4961 399.98 14.0664C401.934 13.6367 402.91 13.4219 402.91 13.4219L398.809 17.0547ZM417.324 38.6172C418.301 36.4688 418.555 33.0898 418.086 28.4805C417.305 24.7305 415.605 22.6797 412.988 22.3281C410.371 21.9766 407.812 23.793 405.312 27.7773L407.305 27.3672L398.75 37.2109L399.57 34.2812L388.73 51.0977L392.832 48.0508C392.832 48.0508 392.402 48.6562 391.543 49.8672C390.723 51.0391 389.863 52.4844 388.965 54.2031C388.066 55.9219 387.461 57.6211 387.148 59.3008C386.836 60.9805 387.148 62.3477 388.086 63.4023C389.102 64.3789 390.176 64.9844 391.309 65.2188C392.48 65.4531 393.574 65.4727 394.59 65.2773C395.645 65.082 396.504 64.8477 397.168 64.5742C397.871 64.3008 398.223 64.1641 398.223 64.1641L394.883 66.2148C394.883 66.2148 395.293 66.1562 396.113 66.0391C396.934 65.9219 398.027 65.5508 399.395 64.9258C400.801 64.3008 402.344 63.2852 404.023 61.8789C405.742 60.3555 407.285 58.6953 408.652 56.8984C410.02 55.0625 411.113 53.4805 411.934 52.1523C412.793 50.7852 413.223 50.1016 413.223 50.1016L408.008 54.1445C408.008 54.1445 408.359 53.5586 409.062 52.3867C409.805 51.2148 410.664 49.8086 411.641 48.168C412.656 46.4883 413.633 44.8672 414.57 43.3047C415.547 41.7031 416.309 40.4336 416.855 39.4961C417.09 39.0664 417.285 38.7344 417.441 38.5C417.598 38.2266 417.695 38.0312 417.734 37.9141C417.812 37.7969 417.852 37.7383 417.852 37.7383C417.852 37.7383 417.832 37.7773 417.793 37.8555C417.793 37.8945 417.754 37.9531 417.676 38.0312C417.637 38.1094 417.598 38.1875 417.559 38.2656C417.52 38.3438 417.48 38.4219 417.441 38.5C417.402 38.5391 417.363 38.5781 417.324 38.6172ZM408.066 25.7852C408.066 25.7852 408.164 25.7461 408.359 25.668C408.555 25.5508 408.809 25.4336 409.121 25.3164C409.434 25.1992 409.766 25.1211 410.117 25.082C410.391 25.043 410.625 25.043 410.82 25.082C411.016 25.1211 411.152 25.1797 411.23 25.2578C411.348 25.3359 411.426 25.4141 411.465 25.4922C411.543 25.5313 411.582 25.5508 411.582 25.5508L413.457 23.793C413.457 23.793 413.262 23.7734 412.871 23.7344C412.48 23.6563 411.875 23.6953 411.055 23.8516C410.469 23.9688 409.961 24.1836 409.531 24.4961C409.102 24.8086 408.75 25.1016 408.477 25.375C408.203 25.6484 408.066 25.7852 408.066 25.7852Z" fill="#F7BE16"/>
</g>
<defs>
<filter id="filter0_d" x="0.308594" y="0.824219" width="433.389" height="123.622" filterUnits="userSpaceOnUse" color-interpolation-filters="sRGB">
<feFlood flood-opacity="0" result="BackgroundImageFix"/>
<feColorMatrix in="SourceAlpha" type="matrix" values="0 0 0 0 0 0 0 0 0 0 0 0 0 0 0 0 0 0 127 0"/>
<feOffset dy="20"/>
<feGaussianBlur stdDeviation="2"/>
<feColorMatrix type="matrix" values="0 0 0 0 0 0 0 0 0 0 0 0 0 0 0 0 0 0 0.25 0"/>
<feBlend mode="normal" in2="BackgroundImageFix" result="effect1_dropShadow"/>
<feBlend mode="normal" in="SourceGraphic" in2="effect1_dropShadow" result="shape"/>
</filter>
</defs>
</svg>
