<svg width="630" height="171" viewBox="0 0 630 171" fill="none" xmlns="http://www.w3.org/2000/svg">
<g filter="url(#filter0_di)">
<path d="M0.473633 127.229C0.473633 127.043 1.03027 126.022 2.14355 124.167C3.25684 122.25 4.55566 120.054 6.04004 117.58C7.52441 115.106 8.82324 112.941 9.93652 111.086C11.1117 109.169 11.6992 108.21 11.6992 108.21L6.31836 129.826L24.6875 95.6855L22.9248 110.715L38.9746 68.9668L31.3672 76.7598L42.6855 52.6387L39.8096 62.3799C39.8096 62.3799 40.1497 61.8851 40.8301 60.8955C41.5104 59.8441 42.3454 58.638 43.335 57.2773C44.3245 55.8548 45.3141 54.5251 46.3037 53.2881C47.2933 52.0511 48.1283 51.1852 48.8086 50.6904C49.4889 50.1338 49.86 50.2266 49.9219 50.9688C49.9837 52.0202 49.7363 53.5973 49.1797 55.7002C48.6849 57.7412 48.0973 59.9059 47.417 62.1943C46.7367 64.4209 46.1182 66.3382 45.5615 67.9463C45.0667 69.5544 44.8193 70.3584 44.8193 70.3584L50.2002 62.751C50.2002 62.751 49.7054 64.2663 48.7158 67.2969C47.7262 70.3275 46.582 73.8219 45.2832 77.7803C44.0462 81.6768 42.902 85.1712 41.8506 88.2637C40.7992 91.3561 40.1807 93.1497 39.9951 93.6445C39.8714 93.8919 40.026 93.8919 40.459 93.6445C40.9538 93.3353 41.5723 92.9023 42.3145 92.3457C43.1185 91.7891 43.8916 91.2015 44.6338 90.583C45.4378 89.9645 46.1182 89.4388 46.6748 89.0059C47.2933 88.5729 47.6025 88.3564 47.6025 88.3564L46.3965 107.097L59.1992 91.6035L56.8799 101.252L93.0615 59.5039L83.877 82.79L84.5264 72.9561L68.9404 110.715L72.5586 110.158L62.4463 126.672L72.002 120.734C72.002 120.734 71.4144 122.559 70.2393 126.208C69.126 129.857 67.7962 134.063 66.25 138.825C64.7038 143.526 63.2812 147.731 61.9824 151.442C60.7454 155.215 59.9723 157.38 59.6631 157.937C59.4775 158.122 60.1579 156.978 61.7041 154.504C63.2503 152.03 65.2295 148.876 67.6416 145.041C70.0537 141.206 72.4658 137.341 74.8779 133.444C77.3519 129.548 79.4238 126.239 81.0937 123.518C82.8255 120.796 83.6914 119.436 83.6914 119.436L81.1865 130.104L98.2568 97.4482L92.5049 101.066L107.812 70.915L103.452 86.5938L127.295 30.6514L126.831 37.8877C126.831 37.8877 127.171 37.1455 127.852 35.6611C128.532 34.1768 129.212 32.2904 129.893 30.002C130.573 27.7135 131.006 25.3942 131.191 23.0439C131.377 20.6318 131.037 18.4671 130.171 16.5498C129.305 14.5706 127.635 13.179 125.161 12.375C122.007 11.5091 119.1 11.4473 116.44 12.1895C113.843 12.8698 111.585 13.9212 109.668 15.3438C107.751 16.7044 106.266 18.0033 105.215 19.2402C104.163 20.4772 103.638 21.0957 103.638 21.0957L107.07 13.9521L83.7842 38.9082L92.9688 34.4551L62.9102 65.1631L68.4766 46.9795L63.2812 54.6797L65.415 30.5586L66.8994 34.1768C66.8994 34.1768 66.9303 33.4655 66.9922 32.043C67.1159 30.5586 67.1777 28.8577 67.1777 26.9404C67.1777 24.9613 67.0231 23.1058 66.7139 21.374C66.4046 19.6423 65.8789 18.4362 65.1367 17.7559C64.0234 16.89 62.972 16.3024 61.9824 15.9932C61.0547 15.6839 60.2816 15.5293 59.6631 15.5293C59.1064 15.4674 58.8281 15.4365 58.8281 15.4365L64.9512 14.1377C64.9512 14.1377 64.4564 14.014 63.4668 13.7666C62.4772 13.5192 61.0238 13.4264 59.1064 13.4883C57.251 13.5501 54.9316 13.9212 52.1484 14.6016C49.3652 15.4674 46.7367 16.8281 44.2627 18.6836C41.8506 20.4772 39.8714 22.1781 38.3252 23.7861C36.779 25.3942 36.0059 26.1982 36.0059 26.1982L42.0361 23.6006C42.0361 23.6006 41.4795 24.1263 40.3662 25.1777C39.2529 26.2292 37.583 28.3011 35.3564 31.3936C34.1813 33.0635 32.7897 35.5684 31.1816 38.9082C29.5736 42.248 27.9346 45.7425 26.2646 49.3916C24.6566 53.0407 23.2959 56.195 22.1826 58.8545C21.1312 61.4521 20.6055 62.751 20.6055 62.751L22.3682 52.917L6.68945 92.5312L13.0908 86.5938L0.473633 127.229ZM18.3789 113.405C18.5026 113.282 18.6882 112.941 18.9355 112.385C19.1829 111.828 19.4303 111.21 19.6777 110.529C19.987 109.849 20.2344 109.261 20.4199 108.767C20.6673 108.21 20.791 107.932 20.791 107.932L21.1621 113.034L18.3789 113.405ZM22.3682 50.1338L22.7393 42.6191L25.8936 40.207L22.3682 50.1338ZM44.0771 98.376L42.3145 110.437C42.3145 110.437 42.098 110.498 41.665 110.622C41.2321 110.746 40.7064 110.9 40.0879 111.086C39.4694 111.271 38.8509 111.457 38.2324 111.643C37.6758 111.828 37.2119 111.983 36.8408 112.106C36.5316 112.168 36.4388 112.199 36.5625 112.199C36.8099 112.076 37.3047 111.333 38.0469 109.973C38.8509 108.55 39.6859 106.973 40.5518 105.241C41.4795 103.448 42.2835 101.87 42.9639 100.51C43.7061 99.0872 44.0771 98.376 44.0771 98.376ZM83.3203 36.3105L74.8779 46.6084L75.5273 41.6914L83.3203 36.3105ZM102.432 91.6035L102.988 103.107L97.9785 106.076L102.432 91.6035ZM126.312 74.3477C126.312 74.4095 126.002 74.7806 125.384 75.4609C124.827 76.1413 124.116 77.0381 123.25 78.1514C122.075 79.5739 120.838 81.0892 119.539 82.6973C118.24 84.3053 117.127 85.6969 116.199 86.8721C115.271 88.0472 114.777 88.6966 114.715 88.8203C114.715 88.8822 114.746 88.6657 114.808 88.1709C114.869 87.6143 114.931 86.9339 114.993 86.1299C115.055 85.3258 115.117 84.5218 115.179 83.7178C115.241 82.8519 115.302 82.1406 115.364 81.584C115.426 80.9655 115.457 80.6562 115.457 80.6562C116.756 79.9141 118.055 79.1719 119.354 78.4297C121.642 77.069 123.961 75.7083 126.312 74.3477ZM167.596 100.695L177.894 96.9844L178.45 93.5518L167.596 100.695ZM173.255 42.9902C174.616 42.1243 176.471 41.4749 178.821 41.042C181.172 40.5472 183.213 40.238 184.944 40.1143L187.356 36.96C185.068 36.96 182.532 37.5166 179.749 38.6299C176.966 39.6813 174.801 41.1348 173.255 42.9902ZM132.806 127.229C133.053 127.909 133.331 128.589 133.641 129.27C133.888 130.012 134.135 130.723 134.383 131.403C136.238 130.97 138.063 130.568 139.856 130.197C140.537 130.012 141.186 129.857 141.805 129.733C140.877 129.424 139.918 129.146 138.929 128.898C136.888 128.342 134.847 127.785 132.806 127.229ZM205.818 16.0859C204.396 16.0859 203.097 16.1169 201.922 16.1787C199.757 16.1787 197.716 16.2406 195.799 16.3643C193.943 16.4261 191.871 16.5498 189.583 16.7354C181.976 17.7249 176.038 19.2093 171.771 21.1885C167.565 23.1058 165.462 24.0645 165.462 24.0645C166.823 22.6419 168.214 21.2503 169.637 19.8896C170.317 19.1475 171.028 18.4053 171.771 17.6631C171.771 17.6631 170.966 17.9105 169.358 18.4053C167.75 18.8382 165.647 19.735 163.05 21.0957C160.514 22.3945 157.762 24.3428 154.793 26.9404C152.999 28.4867 151.515 29.8473 150.34 31.0225C149.165 32.1976 148.237 33.1872 147.557 33.9912C146.876 34.7952 146.351 35.4447 145.979 35.9395C145.67 36.4342 145.454 36.8053 145.33 37.0527C145.206 37.2383 145.145 37.3311 145.145 37.3311C148.051 35.1663 150.958 33.0326 153.865 30.9297C151.762 34.9499 149.66 38.9391 147.557 42.8975C145.454 46.9176 143.351 50.9378 141.248 54.958C141.248 53.8447 141.248 52.7314 141.248 51.6182C141.248 50.5667 141.248 49.4844 141.248 48.3711C138.898 52.8861 136.548 57.401 134.197 61.916C132.156 62.2253 130.239 62.5345 128.445 62.8438C126.652 63.0911 125.198 63.3385 124.085 63.5859C123.034 63.7715 122.57 63.8952 122.693 63.957C122.941 64.0807 123.436 64.4209 124.178 64.9775C124.982 65.5342 125.848 66.1527 126.775 66.833C127.703 67.5133 128.476 68.1318 129.095 68.6885C129.775 69.1833 130.115 69.4307 130.115 69.4307C129.435 69.6781 128.755 69.9255 128.074 70.1729C125.291 71.2861 122.477 72.3685 119.632 73.4199C121.425 73.1107 123.219 72.8324 125.013 72.585C126.373 72.3376 127.734 72.0902 129.095 71.8428C128.105 73.6982 127.146 75.5537 126.219 77.4092C125.291 79.2028 124.332 81.0273 123.343 82.8828C125.384 81.0273 127.456 79.141 129.559 77.2236C129.559 77.2236 128.724 78.6771 127.054 81.584C125.384 84.4909 123.683 88.2637 121.951 92.9023C120.219 97.4792 119.075 102.365 118.519 107.561C118.333 111.395 118.828 114.611 120.003 117.209C121.116 119.807 122.508 121.879 124.178 123.425C125.91 124.909 127.425 125.992 128.724 126.672C130.084 127.29 130.765 127.6 130.765 127.6C129.713 126.177 128.631 124.785 127.518 123.425C126.961 122.744 126.404 122.064 125.848 121.384C125.848 121.384 126.528 121.786 127.889 122.59C129.311 123.332 131.259 124.074 133.733 124.816C136.269 125.559 139.176 125.93 142.454 125.93C145.67 125.93 148.917 125.528 152.195 124.724C155.535 123.858 158.287 122.992 160.452 122.126C162.679 121.26 163.792 120.827 163.792 120.827C162.926 121.384 162.029 121.94 161.102 122.497C159.061 123.734 157.02 125.002 154.979 126.301C163.143 123.889 171.276 121.477 179.378 119.064C186.367 116.962 193.356 114.89 200.345 112.849C200.345 112.849 199.788 112.818 198.675 112.756C197.623 112.632 196.325 112.508 194.778 112.385C193.294 112.261 191.84 112.137 190.418 112.014C188.995 111.828 187.882 111.674 187.078 111.55C186.274 111.426 186.089 111.302 186.521 111.179C187.14 111.055 188.624 110.529 190.975 109.602C193.387 108.674 196.015 107.622 198.86 106.447C201.705 105.272 204.179 104.252 206.282 103.386C208.447 102.458 209.529 101.994 209.529 101.994C205.447 101.87 201.334 101.747 197.19 101.623C193.294 101.499 189.428 101.376 185.594 101.252C186.831 100.51 188.068 99.7676 189.305 99.0254C191.902 97.541 194.531 96.0257 197.19 94.4795C191.067 96.1494 185.099 97.9121 179.285 99.7676C173.471 101.561 167.534 103.293 161.473 104.963C162.339 104.283 163.081 103.509 163.699 102.644C164.318 101.778 165.06 101.005 165.926 100.324C161.535 102.922 157.452 104.654 153.68 105.52C149.907 106.324 145.577 105.736 140.691 103.757C142.485 105.241 144.248 106.695 145.979 108.117C145.979 108.117 145.608 108.117 144.866 108.117C144.124 108.117 143.227 107.993 142.176 107.746C141.186 107.499 140.228 107.035 139.3 106.354C138.434 105.674 137.815 104.685 137.444 103.386C137.259 102.396 137.815 100.324 139.114 97.1699C140.475 93.9538 142.269 90.1501 144.495 85.7588L134.754 86.9648L155.535 80.2852L159.988 78.5225C159.432 79.0173 158.875 79.512 158.318 80.0068C157.762 80.5016 157.236 80.9655 156.741 81.3984C159.463 80.7181 162.184 80.0378 164.905 79.3574C167.627 78.6152 170.348 77.904 173.069 77.2236C172.451 77.6566 171.832 78.0586 171.214 78.4297C170.595 78.8008 170.008 79.2028 169.451 79.6357C176.007 78.6462 182.594 77.6566 189.212 76.667C188.099 76.3577 187.016 76.0485 185.965 75.7393C184.852 75.3682 183.738 75.028 182.625 74.7188C182.625 74.7188 183.243 74.5951 184.48 74.3477C185.717 74.1003 187.202 73.8219 188.934 73.5127C190.727 73.1416 192.459 72.8014 194.129 72.4922C195.861 72.1211 197.252 71.8428 198.304 71.6572C199.355 71.4098 199.757 71.2861 199.51 71.2861C199.201 71.2861 198.087 71.1315 196.17 70.8223C194.314 70.513 192.243 70.1729 189.954 69.8018C187.666 69.4307 185.656 69.0905 183.924 68.7813C182.192 68.472 181.326 68.3174 181.326 68.3174C184.109 67.5752 186.893 66.8021 189.676 65.998C187.14 65.9362 184.604 65.8743 182.068 65.8125C179.78 65.7507 177.492 65.6888 175.203 65.627C175.636 65.3177 176.038 65.0394 176.409 64.792C176.842 64.5446 177.275 64.2663 177.708 63.957C176.718 63.7096 175.76 63.4313 174.832 63.1221C173.842 62.8747 172.853 62.6273 171.863 62.3799C167.843 62.8128 163.792 63.2148 159.71 63.5859C159.339 63.5241 158.968 63.4313 158.597 63.3076C157.978 63.1839 157.36 63.0293 156.741 62.8438C159.153 58.5143 161.163 54.9271 162.771 52.082C164.38 49.237 165.184 47.8145 165.184 47.8145C165.184 48 165.153 48.1855 165.091 48.3711C164.967 50.041 164.812 51.68 164.627 53.2881C164.627 53.2881 164.998 52.515 165.74 50.9688C166.544 49.4225 167.565 47.598 168.802 45.4951C170.101 43.3923 171.523 41.3822 173.069 39.4648C174.616 37.5475 176.162 36.1559 177.708 35.29C180.8 33.7438 183.305 32.7852 185.223 32.4141C187.202 31.9811 188.191 31.7646 188.191 31.7646C187.326 32.2594 186.46 32.7542 185.594 33.249C184.171 34.0531 182.78 34.8571 181.419 35.6611C185.439 34.7334 190.016 34.1149 195.149 33.8057C200.345 33.4964 204.983 33.682 209.065 34.3623C206.53 33.6201 203.994 32.847 201.458 32.043C204.736 31.7337 207.581 31.2699 209.993 30.6514C212.343 29.971 215.188 29.5072 218.528 29.2598C217.044 28.6413 215.312 28.0846 213.333 27.5898C211.416 27.0332 209.715 26.4766 208.23 25.9199C210.21 25.3014 212.9 24.8066 216.302 24.4355C219.642 24.0645 222.301 23.5387 224.28 22.8584C224.28 22.8584 223.94 22.7656 223.26 22.5801C222.641 22.3945 221.868 22.1781 220.94 21.9307C220.013 21.6833 219.085 21.4359 218.157 21.1885C217.229 20.9411 216.487 20.7246 215.931 20.5391C215.374 20.3535 215.158 20.2607 215.281 20.2607C215.59 20.1989 216.364 19.8896 217.601 19.333C218.838 18.7764 220.167 18.1579 221.59 17.4775C221.899 17.3538 222.208 17.2301 222.518 17.1064C221.404 17.1064 220.353 17.1374 219.363 17.1992C216.951 17.1992 214.261 17.292 211.292 17.4775C208.385 17.6012 204.612 18.0342 199.974 18.7764C194.345 19.6423 190.449 20.2917 188.284 20.7246C186.119 21.0957 185.037 21.2813 185.037 21.2813C185.099 21.2194 185.192 21.1576 185.315 21.0957C185.439 20.972 185.594 20.8483 185.779 20.7246C186.027 20.5391 186.336 20.3844 186.707 20.2607C187.078 20.0752 187.511 19.8896 188.006 19.7041C188.562 19.4567 189.212 19.2402 189.954 19.0547C190.758 18.8073 191.655 18.5599 192.645 18.3125C193.696 18.0651 194.84 17.8177 196.077 17.5703C197.376 17.3229 198.829 17.0755 200.438 16.8281C202.107 16.5807 203.901 16.3333 205.818 16.0859ZM154.051 62.3799L149.969 62.1943L155.071 53.8447L153.865 58.2051L160.638 47.7217C160.638 47.7217 160.298 48.4639 159.617 49.9482C158.937 51.4326 158.164 53.1335 157.298 55.0508C156.494 56.9681 155.752 58.6689 155.071 60.1533C154.391 61.6377 154.051 62.3799 154.051 62.3799ZM226.173 28.4248L218.658 45.3096L228.771 27.0332L233.316 25.085L233.038 27.7754L242.315 23.9717L241.202 28.1465L248.81 22.3018L243.521 37.6094L230.719 59.04L235.729 54.4941C233.997 57.4629 231.43 62.6891 228.028 70.1729C224.627 77.6566 221.72 85.0166 219.308 92.2529C216.957 99.4274 216.463 104.035 217.823 106.076L221.163 97.3555L217.916 113.498C217.916 113.498 218.132 113.684 218.565 114.055C219.06 114.426 219.802 114.797 220.792 115.168C221.843 115.477 223.173 115.632 224.781 115.632C226.389 115.632 228.368 115.292 230.719 114.611C233.007 113.869 234.863 112.972 236.285 111.921C237.77 110.869 238.883 109.849 239.625 108.859C240.367 107.87 240.862 107.035 241.109 106.354C241.419 105.674 241.573 105.334 241.573 105.334L234.615 108.21C234.615 108.21 235.512 107.282 237.306 105.427C239.161 103.509 241.45 100.201 244.171 95.5C246.026 92.222 247.944 88.6657 249.923 84.8311C251.902 80.9964 253.603 77.6566 255.025 74.8115C256.448 71.9046 257.159 70.4512 257.159 70.4512L250.294 78.2441C250.294 78.2441 250.789 76.9144 251.778 74.2549C252.83 71.5335 254.129 68.2555 255.675 64.4209C257.283 60.5863 258.922 56.7826 260.592 53.0098C262.262 49.237 263.808 46.1445 265.23 43.7324C267.086 40.5163 268.972 36.7435 270.89 32.4141C272.869 28.0228 274.539 24.0954 275.899 20.6318C277.322 17.1683 278.033 15.4365 278.033 15.4365L280.538 22.3018L290.372 6.90137L288.702 18.127L300.021 0.22168C300.021 0.22168 299.186 2.69564 297.516 7.64355C295.908 12.5915 294.052 18.2816 291.949 24.7139C289.846 31.0843 287.991 36.7435 286.383 41.6914C284.775 46.6393 283.909 49.3916 283.785 49.9482C283.785 50.1338 283.909 50.0719 284.156 49.7627C284.404 49.4535 284.713 48.9896 285.084 48.3711C285.455 47.7526 285.826 47.1341 286.197 46.5156C286.568 45.8353 286.878 45.2786 287.125 44.8457C287.434 44.3509 287.589 44.1035 287.589 44.1035L270.055 97.9121L270.89 87.1504C270.89 87.1504 270.178 89.5625 268.756 94.3867C267.395 99.2109 264.457 105.705 259.942 113.869C256.726 119.25 253.386 123.641 249.923 127.043C246.521 130.383 243.583 132.857 241.109 134.465C238.635 136.011 237.398 136.784 237.398 136.784L243.707 128.249C243.707 128.249 242.532 128.837 240.182 130.012C237.893 131.125 235.048 132.3 231.646 133.537C237.955 130.878 243.985 125.59 249.737 117.673C257.221 106.354 262.107 98.2832 264.396 93.459C266.746 88.6348 267.921 86.2227 267.921 86.2227C263.035 95.6237 256.479 105.705 248.253 116.467C240.027 127.167 231.646 133.413 223.111 135.207C214.638 137.001 207.556 129.208 201.866 111.828L200.382 121.291C200.382 121.291 200.258 120.611 200.011 119.25C199.825 117.827 199.763 115.415 199.825 112.014C199.887 108.612 200.227 103.973 200.846 98.0977C201.65 91.9746 202.979 85.8206 204.835 79.6357C206.752 73.389 208.546 68.1318 210.216 63.8643C211.948 59.5348 212.813 57.3701 212.813 57.3701L207.525 65.9053C207.525 65.9053 207.896 64.8229 208.639 62.6582C209.381 60.4316 210.803 57.1536 212.906 52.8242C214.452 49.9173 216.153 46.7321 218.009 43.2686C219.864 39.805 221.565 36.6816 223.111 33.8984C224.658 31.1152 225.678 29.2907 226.173 28.4248ZM233.409 23.6934L233.038 20.4463L230.255 22.7656L233.409 23.6934ZM234.615 26.4766L243.521 20.2607L235.821 22.3018L234.615 26.4766ZM288.888 40.8564C288.95 40.7946 289.352 40.238 290.094 39.1865C290.836 38.1351 291.671 36.929 292.599 35.5684C293.588 34.1458 294.454 32.9089 295.196 31.8574C295.938 30.7441 296.31 30.1875 296.31 30.1875L295.011 24.8994L288.888 40.8564ZM234.801 105.148C234.863 105.087 235.048 104.932 235.357 104.685C235.667 104.375 236.007 104.066 236.378 103.757C236.749 103.386 237.089 103.076 237.398 102.829C237.708 102.52 237.862 102.365 237.862 102.365L241.109 97.3555L237.677 98.2832L234.801 105.148ZM221.441 112.756L223.946 103.386L220.606 105.798L218.751 112.292L220.978 109.973L221.441 112.756ZM206.969 66.7402C206.969 66.7402 206.412 68.0391 205.299 70.6367C204.247 73.2344 202.949 76.7288 201.402 81.1201C200.413 84.027 199.825 86.5319 199.64 88.6348C199.454 90.7376 199.423 92.3766 199.547 93.5518C199.732 94.7269 199.825 95.3145 199.825 95.3145C199.825 95.3145 200.598 91.9437 202.145 85.2021C202.825 82.7282 203.536 80.0687 204.278 77.2236C205.021 74.3786 205.639 71.9355 206.134 69.8945C206.69 67.7917 206.969 66.7402 206.969 66.7402ZM365.036 126.672C364.974 126.672 364.541 126.981 363.737 127.6C362.933 128.156 361.975 128.837 360.861 129.641C359.81 130.383 358.882 131.063 358.078 131.682C357.274 132.238 356.872 132.517 356.872 132.517C357.491 132.455 358.078 132.362 358.635 132.238C359.253 132.176 359.872 132.115 360.49 132.053C360.614 131.929 360.738 131.774 360.861 131.589C362.222 129.981 363.614 128.342 365.036 126.672ZM414.299 48C414.299 48 414.021 48.3402 413.464 49.0205C412.969 49.639 412.072 50.8141 410.773 52.5459C409.413 54.2777 408.269 55.5146 407.341 56.2568C406.413 56.9372 405.949 57.2773 405.949 57.2773C405.887 57.6484 405.733 58.2979 405.485 59.2256C405.238 60.0915 404.96 61.0811 404.65 62.1943C404.341 63.2458 404.063 64.2354 403.815 65.1631C403.568 66.029 403.413 66.6475 403.352 67.0186C403.352 67.0186 403.692 66.4619 404.372 65.3486C405.052 64.1735 405.856 62.8438 406.784 61.3594C407.774 59.875 408.701 58.5452 409.567 57.3701C410.433 56.195 411.206 54.8962 411.887 53.4736C412.629 51.9893 413.216 50.7214 413.649 49.6699C414.082 48.5566 414.299 48 414.299 48ZM385.446 8.66406C384.704 9.09701 383.993 9.52995 383.312 9.96289C382.137 10.7669 380.962 11.54 379.787 12.2822C387.642 10.9215 395.559 10.0247 403.537 9.5918C400.692 9.40625 397.816 9.25163 394.909 9.12793C391.755 8.94238 388.601 8.78776 385.446 8.66406ZM425.339 69.9873C426.638 68.9977 427.689 67.9772 428.493 66.9258C429.359 65.8125 430.349 64.359 431.462 62.5654C432.08 61.5758 432.792 60.4316 433.596 59.1328C432.235 65.627 428.369 73.6982 421.999 83.3467C415.629 92.9333 409.846 99.6748 404.65 103.571C404.65 103.571 404.743 103.293 404.929 102.736C405.176 102.118 405.454 101.407 405.764 100.603C406.073 99.7367 406.351 98.9017 406.599 98.0977C406.908 97.2936 407.155 96.6442 407.341 96.1494C407.526 95.6546 407.588 95.5 407.526 95.6855C406.042 98.8398 402.95 102.242 398.249 105.891C393.61 109.54 388.755 112.88 383.684 115.91C378.612 118.941 374.715 121.136 371.994 122.497C368.716 123.734 367.077 124.353 367.077 124.353C368.314 123.363 369.551 122.404 370.788 121.477C372.272 120.425 373.726 119.343 375.148 118.229C375.025 118.291 374.932 118.353 374.87 118.415C374.746 118.415 374.623 118.446 374.499 118.508C357.491 126.053 340.451 133.63 323.381 141.237C325.113 140.124 326.844 139.011 328.576 137.897C330.432 136.66 332.318 135.454 334.235 134.279C334.235 134.217 334.235 134.187 334.235 134.187C334.235 134.125 334.235 134.094 334.235 134.094C327.556 135.949 320.845 137.836 314.104 139.753C310.393 140.804 306.682 141.825 302.971 142.814C307.548 140.34 312.124 137.867 316.701 135.393C323.814 131.558 330.896 127.723 337.946 123.889C338.008 123.703 338.07 123.549 338.132 123.425C334.916 123.796 331.7 124.136 328.483 124.445C329.411 124.136 330.308 123.796 331.174 123.425C333.895 122.373 336.586 121.322 339.245 120.271L353.811 88.3564C353.007 89.346 352.202 90.3356 351.398 91.3252C350.594 92.2529 349.79 93.2116 348.986 94.2012C351.213 87.3978 353.439 80.5944 355.666 73.791C357.893 66.7402 360.15 59.7204 362.438 52.7314C362.438 52.7314 362.438 53.1335 362.438 53.9375C362.438 54.6797 362.438 55.6074 362.438 56.7207C362.438 57.7721 362.438 58.8236 362.438 59.875C362.438 60.9264 362.438 61.7614 362.438 62.3799C362.438 62.9365 362.438 63.1221 362.438 62.9365C362.5 62.2562 363.304 59.5967 364.851 54.958C366.459 50.3193 368.376 45.3096 370.603 39.9287C372.829 34.486 374.963 30.2493 377.004 27.2188C377.561 26.4147 378.055 25.7035 378.488 25.085C378.983 24.4665 379.416 23.9098 379.787 23.415C380.158 22.9202 380.498 22.4873 380.808 22.1162C381.179 21.6833 381.488 21.3431 381.735 21.0957C381.983 20.7865 382.199 20.5391 382.385 20.3535C382.632 20.1061 382.818 19.9206 382.941 19.7969C383.127 19.6113 383.251 19.4876 383.312 19.4258C383.436 19.3639 383.529 19.3021 383.591 19.2402C383.715 19.1784 383.776 19.1475 383.776 19.1475C383.838 19.1475 383.869 19.1475 383.869 19.1475C383.931 19.1475 383.962 19.1475 383.962 19.1475C381.797 20.0133 379.632 20.8792 377.468 21.7451C377.468 21.7451 378.21 21.0648 379.694 19.7041C381.241 18.3434 383.591 16.859 386.745 15.251C389.899 13.5811 394.012 12.1895 399.084 11.0762C404.217 10.1484 409.165 9.96289 413.928 10.5195C418.69 11.0762 422.648 11.8184 425.803 12.7461C428.957 13.6738 430.534 14.1377 430.534 14.1377C429.545 14.1995 428.555 14.2923 427.565 14.416C426.576 14.4779 425.555 14.5397 424.504 14.6016C430.441 16.9518 434.802 21.0029 437.585 26.7549C440.368 32.445 440.368 38.2588 437.585 44.1963C440.121 31.1462 434.214 22.1471 419.865 17.1992C419.865 17.1992 420.576 17.5394 421.999 18.2197C423.483 18.9001 425.215 19.9206 427.194 21.2813C429.174 22.6419 430.998 24.3428 432.668 26.3838C434.4 28.363 435.606 30.6823 436.286 33.3418C437.523 40.0215 436.905 46.5156 434.431 52.8242C431.957 59.071 428.926 64.792 425.339 69.9873ZM338.225 117.951C336.555 117.827 334.916 117.735 333.308 117.673C331.638 117.549 329.999 117.425 328.391 117.302C327.896 117.797 327.401 118.291 326.906 118.786C326.473 119.281 326.009 119.776 325.515 120.271C327.618 119.838 329.72 119.436 331.823 119.064C333.988 118.693 336.122 118.322 338.225 117.951ZM337.761 115.168C337.823 112.818 337.884 110.437 337.946 108.024C338.008 107.653 338.039 107.282 338.039 106.911C337.421 107.344 336.802 107.777 336.184 108.21C335.627 108.643 335.039 109.045 334.421 109.416C335.534 111.333 336.647 113.251 337.761 115.168ZM388.415 48.2783C385.817 53.2262 383.096 59.473 380.251 67.0186C377.406 74.5023 374.715 81.8932 372.18 89.1914C370.51 94.1393 368.994 98.4378 367.634 102.087C370.355 100.85 373.695 98.9635 377.653 96.4277C381.674 93.8919 385.632 90.985 389.528 87.707C388.044 88.2018 386.529 88.6966 384.982 89.1914C383.498 89.6862 381.983 90.181 380.437 90.6758C380.437 90.6758 383.56 88.4183 389.807 83.9033C393.146 81.3057 395.744 78.8626 397.6 76.5742C399.455 74.224 400.383 73.0488 400.383 73.0488C399.95 74.5332 399.486 75.9867 398.991 77.4092C398.682 78.5225 398.342 79.6048 397.971 80.6563C397.971 80.6563 398.435 80.3779 399.362 79.8213C400.29 79.2646 401.558 78.1514 403.166 76.4814C404.774 74.8115 406.691 72.3994 408.918 69.2451C412.134 64.2354 414.392 59.9059 415.69 56.2568C416.989 52.5459 417.639 50.6904 417.639 50.6904C415.907 52.6696 414.175 54.6488 412.443 56.6279C412.443 56.6279 412.722 56.1331 413.278 55.1436C413.835 54.154 414.392 52.8861 414.948 51.3398C415.567 49.7318 416 48.0618 416.247 46.3301C416.556 44.5983 416.464 42.9902 415.969 41.5059C414.794 38.4134 412.814 36.0322 410.031 34.3623C407.248 32.6924 404.156 32.2285 400.754 32.9707C398.527 33.5892 396.61 34.5788 395.002 35.9395C393.394 37.2383 392.126 38.5062 391.198 39.7432C390.271 40.9183 389.807 41.5059 389.807 41.5059C390.982 41.1348 392.157 40.7637 393.332 40.3926C394.136 40.0833 394.971 39.805 395.837 39.5576C395.837 39.5576 395.651 39.6504 395.28 39.8359C394.909 40.0215 394.383 40.3926 393.703 40.9492C393.085 41.5059 392.312 42.3717 391.384 43.5469C390.518 44.722 389.528 46.2992 388.415 48.2783ZM463.228 28.4248L455.713 45.3096L465.825 27.0332L470.371 25.085L470.093 27.7754L479.37 23.9717L478.257 28.1465L485.864 22.3018L480.576 37.6094L467.773 59.04L472.783 54.4941C471.051 57.4629 468.485 62.6891 465.083 70.1729C461.681 77.6566 458.774 85.0166 456.362 92.2529C454.012 99.4274 453.517 104.035 454.878 106.076L458.218 97.3555L454.971 113.498C454.971 113.498 455.187 113.684 455.62 114.055C456.115 114.426 456.857 114.797 457.847 115.168C458.898 115.477 460.228 115.632 461.836 115.632C463.444 115.632 465.423 115.292 467.773 114.611C470.062 113.869 471.917 112.972 473.34 111.921C474.824 110.869 475.938 109.849 476.68 108.859C477.422 107.87 477.917 107.035 478.164 106.354C478.473 105.674 478.628 105.334 478.628 105.334L471.67 108.21C471.67 108.21 472.567 107.282 474.36 105.427C476.216 103.509 478.504 100.201 481.226 95.5C483.081 92.222 484.998 88.6657 486.978 84.8311C488.957 80.9964 490.658 77.6566 492.08 74.8115C493.503 71.9046 494.214 70.4512 494.214 70.4512L487.349 78.2441C487.349 78.2441 487.843 76.9144 488.833 74.2549C489.884 71.5335 491.183 68.2555 492.729 64.4209C494.338 60.5863 495.977 56.7826 497.646 53.0098C499.316 49.237 500.863 46.1445 502.285 43.7324C504.141 40.5163 506.027 36.7435 507.944 32.4141C509.924 28.0228 511.593 24.0954 512.954 20.6318C514.377 17.1683 515.088 15.4365 515.088 15.4365L517.593 22.3018L527.427 6.90137L525.757 18.127L537.075 0.22168C537.075 0.22168 536.24 2.69564 534.57 7.64355C532.962 12.5915 531.107 18.2816 529.004 24.7139C526.901 31.0843 525.046 36.7435 523.438 41.6914C521.829 46.6393 520.964 49.3916 520.84 49.9482C520.84 50.1338 520.964 50.0719 521.211 49.7627C521.458 49.4535 521.768 48.9896 522.139 48.3711C522.51 47.7526 522.881 47.1341 523.252 46.5156C523.623 45.8353 523.932 45.2786 524.18 44.8457C524.489 44.3509 524.644 44.1035 524.644 44.1035L507.109 97.9121L507.944 87.1504C507.944 87.1504 507.233 89.5625 505.811 94.3867C504.45 99.2109 501.512 105.705 496.997 113.869C493.781 119.25 490.441 123.641 486.978 127.043C483.576 130.383 480.638 132.857 478.164 134.465C475.69 136.011 474.453 136.784 474.453 136.784L480.762 128.249C480.762 128.249 479.587 128.837 477.236 130.012C474.948 131.125 472.103 132.3 468.701 133.537C475.01 130.878 481.04 125.59 486.792 117.673C494.276 106.354 499.162 98.2832 501.45 93.459C503.8 88.6348 504.976 86.2227 504.976 86.2227C500.09 95.6237 493.534 105.705 485.308 116.467C477.082 127.167 468.701 133.413 460.166 135.207C451.693 137.001 444.611 129.208 438.921 111.828L437.437 121.291C437.437 121.291 437.313 120.611 437.065 119.25C436.88 117.827 436.818 115.415 436.88 112.014C436.942 108.612 437.282 103.973 437.9 98.0977C438.704 91.9746 440.034 85.8206 441.89 79.6357C443.807 73.389 445.601 68.1318 447.271 63.8643C449.002 59.5348 449.868 57.3701 449.868 57.3701L444.58 65.9053C444.58 65.9053 444.951 64.8229 445.693 62.6582C446.436 60.4316 447.858 57.1536 449.961 52.8242C451.507 49.9173 453.208 46.7321 455.063 43.2686C456.919 39.805 458.62 36.6816 460.166 33.8984C461.712 31.1152 462.733 29.2907 463.228 28.4248ZM470.464 23.6934L470.093 20.4463L467.31 22.7656L470.464 23.6934ZM471.67 26.4766L480.576 20.2607L472.876 22.3018L471.67 26.4766ZM525.942 40.8564C526.004 40.7946 526.406 40.238 527.148 39.1865C527.891 38.1351 528.726 36.929 529.653 35.5684C530.643 34.1458 531.509 32.9089 532.251 31.8574C532.993 30.7441 533.364 30.1875 533.364 30.1875L532.065 24.8994L525.942 40.8564ZM471.855 105.148C471.917 105.087 472.103 104.932 472.412 104.685C472.721 104.375 473.062 104.066 473.433 103.757C473.804 103.386 474.144 103.076 474.453 102.829C474.762 102.52 474.917 102.365 474.917 102.365L478.164 97.3555L474.731 98.2832L471.855 105.148ZM458.496 112.756L461.001 103.386L457.661 105.798L455.806 112.292L458.032 109.973L458.496 112.756ZM444.023 66.7402C444.023 66.7402 443.467 68.0391 442.354 70.6367C441.302 73.2344 440.003 76.7288 438.457 81.1201C437.467 84.027 436.88 86.5319 436.694 88.6348C436.509 90.7376 436.478 92.3766 436.602 93.5518C436.787 94.7269 436.88 95.3145 436.88 95.3145C436.88 95.3145 437.653 91.9437 439.199 85.2021C439.88 82.7282 440.591 80.0687 441.333 77.2236C442.075 74.3786 442.694 71.9355 443.188 69.8945C443.745 67.7917 444.023 66.7402 444.023 66.7402ZM568.099 25.9199C570.882 23.8789 574.098 22.3636 577.747 21.374C581.396 20.3844 584.922 19.7969 588.323 19.6113L585.633 18.3125C585.633 18.3125 586.499 18.2507 588.23 18.127C590.024 17.9414 592.22 17.9105 594.817 18.0342C597.415 18.1579 600.075 18.6217 602.796 19.4258C605.579 20.168 608.022 21.4049 610.125 23.1367C612.166 24.9922 613.681 26.9714 614.671 29.0742C615.66 31.1152 616.31 33.0635 616.619 34.9189C616.928 36.7126 617.052 38.1969 616.99 39.3721C616.928 40.4854 616.897 41.042 616.897 41.042L614.207 35.8467C615.382 40.9183 615.599 47.9382 614.856 56.9063C614.114 65.8125 613.156 72.987 611.98 78.4297L609.197 71.0078C608.641 74.7806 607.435 79.0791 605.579 83.9033C603.105 89.7171 599.827 94.9124 595.745 99.4893C591.725 104.004 588.014 107.591 584.612 110.251C581.211 112.91 579.51 114.24 579.51 114.24L590.735 98.376C590.735 98.376 589.931 99.3965 588.323 101.438C586.777 103.479 584.643 105.891 581.922 108.674C579.262 111.395 576.232 114.024 572.83 116.56C567.573 120.085 563.12 122.435 559.471 123.61C555.822 124.724 553.997 125.28 553.997 125.28L561.883 119.064C561.883 119.064 560.986 119.59 559.192 120.642C557.461 121.631 555.234 122.559 552.513 123.425C549.853 124.291 547.101 124.631 544.256 124.445C541.411 124.26 538.875 123.085 536.648 120.92C534.546 118.57 533.061 115.477 532.195 111.643C531.391 107.808 530.927 103.942 530.804 100.046C530.742 96.0876 530.835 92.7477 531.082 90.0264C531.329 87.2432 531.453 85.8516 531.453 85.8516L528.948 98.9326C528.948 98.9326 528.701 98.1286 528.206 96.5205C527.773 94.8506 527.464 92.4694 527.278 89.377C527.155 86.2227 527.526 82.388 528.392 77.873C529.443 72.8014 530.742 68.7813 532.288 65.8125C533.896 62.7819 535.442 60.277 536.927 58.2979C537.793 57.1227 538.566 55.9785 539.246 54.8652C541.287 52.3913 543.452 49.9173 545.74 47.4434C548.09 44.9076 550.101 42.8047 551.771 41.1348C553.44 39.403 554.275 38.5371 554.275 38.5371C554.275 38.5371 554.059 38.599 553.626 38.7227C553.255 38.7845 552.667 39.0628 551.863 39.5576C551.059 39.9906 550.039 40.7327 548.802 41.7842C547.565 42.7738 546.08 44.1344 544.349 45.8662C540.143 50.5667 537.112 54.4323 535.257 57.4629C535.319 55.36 539.091 48.7731 546.575 37.7021C550.534 32.445 554.646 28.5485 558.914 26.0127C563.243 23.4769 566.924 21.8688 569.954 21.1885C573.047 20.5081 574.593 20.168 574.593 20.168L568.099 25.9199ZM597.415 60.0605C598.961 56.6589 599.363 51.3089 598.621 44.0107C597.384 38.0732 594.694 34.8262 590.55 34.2695C586.406 33.7129 582.355 36.5889 578.396 42.8975L581.551 42.248L568.006 57.834L569.305 53.1953L552.142 79.8213L558.636 74.9971C558.636 74.9971 557.955 75.9557 556.595 77.873C555.296 79.7285 553.935 82.0169 552.513 84.7383C551.09 87.4596 550.132 90.1501 549.637 92.8096C549.142 95.4691 549.637 97.6338 551.121 99.3037C552.729 100.85 554.43 101.809 556.224 102.18C558.079 102.551 559.811 102.582 561.419 102.272C563.089 101.963 564.45 101.592 565.501 101.159C566.614 100.726 567.171 100.51 567.171 100.51L561.883 103.757C561.883 103.757 562.532 103.664 563.831 103.479C565.13 103.293 566.862 102.705 569.026 101.716C571.253 100.726 573.696 99.1182 576.355 96.8916C579.077 94.4795 581.52 91.8509 583.685 89.0059C585.849 86.099 587.581 83.5941 588.88 81.4912C590.241 79.3265 590.921 78.2441 590.921 78.2441L582.664 84.6455C582.664 84.6455 583.221 83.7178 584.334 81.8623C585.509 80.0068 586.87 77.7803 588.416 75.1826C590.024 72.5231 591.57 69.9564 593.055 67.4824C594.601 64.9466 595.807 62.9365 596.673 61.4521C597.044 60.7718 597.353 60.2461 597.601 59.875C597.848 59.4421 598.003 59.1328 598.064 58.9473C598.188 58.7617 598.25 58.6689 598.25 58.6689C598.25 58.6689 598.219 58.7308 598.157 58.8545C598.157 58.9163 598.095 59.0091 597.972 59.1328C597.91 59.2565 597.848 59.3802 597.786 59.5039C597.724 59.6276 597.662 59.7513 597.601 59.875C597.539 59.9368 597.477 59.9987 597.415 60.0605ZM582.757 39.7432C582.757 39.7432 582.911 39.6813 583.221 39.5576C583.53 39.3721 583.932 39.1865 584.427 39.001C584.922 38.8154 585.447 38.6917 586.004 38.6299C586.437 38.568 586.808 38.568 587.117 38.6299C587.426 38.6917 587.643 38.7845 587.767 38.9082C587.952 39.0319 588.076 39.1556 588.138 39.2793C588.261 39.3411 588.323 39.3721 588.323 39.3721L591.292 36.5889C591.292 36.5889 590.983 36.5579 590.364 36.4961C589.746 36.3724 588.787 36.4342 587.488 36.6816C586.561 36.8672 585.757 37.2074 585.076 37.7021C584.396 38.1969 583.839 38.6608 583.406 39.0938C582.973 39.5267 582.757 39.7432 582.757 39.7432Z" fill="#2535C6"/>
</g>
<defs>
<filter id="filter0_di" x="0.473633" y="0.22168" width="628.532" height="170.734" filterUnits="userSpaceOnUse" color-interpolation-filters="sRGB">
<feFlood flood-opacity="0" result="BackgroundImageFix"/>
<feColorMatrix in="SourceAlpha" type="matrix" values="0 0 0 0 0 0 0 0 0 0 0 0 0 0 0 0 0 0 127 0"/>
<feOffset dx="6" dy="7"/>
<feGaussianBlur stdDeviation="3"/>
<feColorMatrix type="matrix" values="0 0 0 0 1 0 0 0 0 1 0 0 0 0 1 0 0 0 1 0"/>
<feBlend mode="normal" in2="BackgroundImageFix" result="effect1_dropShadow"/>
<feBlend mode="normal" in="SourceGraphic" in2="effect1_dropShadow" result="shape"/>
<feColorMatrix in="SourceAlpha" type="matrix" values="0 0 0 0 0 0 0 0 0 0 0 0 0 0 0 0 0 0 127 0" result="hardAlpha"/>
<feOffset dy="17"/>
<feGaussianBlur stdDeviation="2"/>
<feComposite in2="hardAlpha" operator="arithmetic" k2="-1" k3="1"/>
<feColorMatrix type="matrix" values="0 0 0 0 0 0 0 0 0 0 0 0 0 0 0 0 0 0 0.25 0"/>
<feBlend mode="normal" in2="shape" result="effect2_innerShadow"/>
</filter>
</defs>
</svg>
